<svg xmlns="http://www.w3.org/2000/svg" xmlns:xlink="http://www.w3.org/1999/xlink" width="697.651" height="435.302" version="1.1" viewBox="0 0 523.238 326.477"><metadata><rdf:RDF xmlns:cc="http://creativecommons.org/ns#" xmlns:dc="http://purl.org/dc/elements/1.1/" xmlns:rdf="http://www.w3.org/1999/02/22-rdf-syntax-ns#"><cc:Work><dc:type rdf:resource="http://purl.org/dc/dcmitype/StillImage"/><dc:date>2026-08-21T01:45:55.490268</dc:date><dc:format>image/svg+xml</dc:format><dc:creator><cc:Agent><dc:title>Matplotlib v3.11.1, https://matplotlib.org/</dc:title></cc:Agent></dc:creator></cc:Work></rdf:RDF></metadata><defs><style type="text/css">*{stroke-linejoin:round;stroke-linecap:butt}</style></defs><g id="figure_1"><g id="patch_1"><path d="M 0 326.4768 L 523.2384 326.4768 L 523.2384 0 L 0 0 L 0 326.4768 z" style="fill:none;opacity:0"/></g><g id="patch_2"><path d="M 21.6 317.8368 L 501.6384 317.8368 Q 514.5984 317.8368 514.5984 309.9168 L 514.5984 16.56 Q 514.5984 8.64 501.6384 8.64 L 21.6 8.64 Q 8.64 8.64 8.64 16.56 L 8.64 309.9168 Q 8.64 317.8368 21.6 317.8368 z" style="fill:#fff;stroke:#e4e4e7;stroke-width:1.2;stroke-linejoin:miter"/></g><g id="axes_1"><g id="patch_3"><path d="M 67.2192 286.7904 L 468.9792 286.7904 L 468.9792 42.8544 L 67.2192 42.8544 L 67.2192 286.7904 z" style="fill:none"/></g><g id="patch_4"><path d="M 67.2192 286.7904 L 165.209444 286.7904 L 165.209444 42.8544 L 67.2192 42.8544 z" clip-path="url(#p216faa16c7)" style="fill:#eef2fd;opacity:.5;stroke:#eef2fd;stroke-linejoin:miter"/></g><g id="matplotlib.axis_1"><g id="xtick_1"><g id="line2d_1"><defs><path id="m9ae200a82f" d="M 0 0 L 0 3.5" style="stroke:#52525b;stroke-width:.8"/></defs><g><use x="67.219" y="286.79" xlink:href="#m9ae200a82f" style="fill:#52525b;stroke:#52525b;stroke-width:.8"/></g></g><g id="text_1"><g style="fill:#52525b" transform="translate(64.2192 302.3904) scale(0.1 -0.1)"><defs><path id="PingFangSC-Regular-13" d="M 1920 4659 C 1370 4659 960 4422 685 3936 C 442 3526 320 2976 320 2285 C 320 1594 442 1043 685 634 C 960 154 1370 -90 1920 -90 C 2464 -90 2874 154 3155 634 C 3398 1043 3520 1594 3520 2285 C 3520 2976 3398 3526 3155 3936 C 2874 4422 2464 4659 1920 4659 z M 1920 4211 C 2330 4211 2624 3994 2803 3552 C 2931 3245 3002 2822 3002 2285 C 3002 1754 2931 1331 2803 1018 C 2624 582 2330 358 1920 358 C 1510 358 1216 582 1037 1018 C 909 1331 845 1754 845 2285 C 845 2822 909 3245 1037 3552 C 1216 3994 1510 4211 1920 4211 z" transform="scale(0.015625)"/></defs><use xlink:href="#PingFangSC-Regular-13"/></g></g></g><g id="xtick_2"><g id="line2d_2"><g><use x="116.214" y="286.79" xlink:href="#m9ae200a82f" style="fill:#52525b;stroke:#52525b;stroke-width:.8"/></g></g><g id="text_2"><g style="fill:#52525b" transform="translate(107.214322 302.3904) scale(0.1 -0.1)"><defs><path id="PingFangSC-Regular-18" d="M 672 4570 L 429 2048 L 928 2048 C 1018 2227 1158 2368 1338 2458 C 1510 2554 1702 2598 1920 2598 C 2253 2598 2515 2502 2701 2298 C 2893 2099 2995 1818 2995 1453 C 2995 1133 2886 870 2682 666 C 2470 461 2208 358 1888 358 C 1606 358 1370 429 1190 563 C 986 717 870 941 845 1229 L 326 1229 C 358 813 531 480 851 237 C 1133 19 1478 -90 1882 -90 C 2330 -90 2714 51 3021 326 C 3347 621 3514 998 3514 1459 C 3514 1952 3373 2336 3104 2618 C 2835 2893 2483 3027 2048 3027 C 1837 3027 1645 2995 1466 2918 C 1267 2842 1101 2726 973 2573 L 947 2573 L 1101 4102 L 3328 4102 L 3328 4570 L 672 4570 z" transform="scale(0.015625)"/></defs><use xlink:href="#PingFangSC-Regular-18"/><use transform="translate(60 0)" xlink:href="#PingFangSC-Regular-13"/><use transform="translate(120 0)" xlink:href="#PingFangSC-Regular-13"/></g></g></g><g id="xtick_3"><g id="line2d_3"><g><use x="165.209" y="286.79" xlink:href="#m9ae200a82f" style="fill:#52525b;stroke:#52525b;stroke-width:.8"/></g></g><g id="text_3"><g style="fill:#52525b" transform="translate(154.204756 302.3904) scale(0.1 -0.1)"><defs><path id="PingFangSC-Regular-14" d="M 1472 4570 C 1318 4397 1139 4243 922 4102 C 704 3974 486 3885 282 3827 L 282 3302 C 710 3430 1069 3635 1357 3930 L 1357 0 L 1882 0 L 1882 4570 L 1472 4570 z" transform="scale(0.015625)"/></defs><use xlink:href="#PingFangSC-Regular-14"/><use transform="translate(40.09375 0)" xlink:href="#PingFangSC-Regular-13"/><use transform="translate(100.09375 0)" xlink:href="#PingFangSC-Regular-13"/><use transform="translate(160.09375 0)" xlink:href="#PingFangSC-Regular-13"/></g></g></g><g id="xtick_4"><g id="line2d_4"><g><use x="214.205" y="286.79" xlink:href="#m9ae200a82f" style="fill:#52525b;stroke:#52525b;stroke-width:.8"/></g></g><g id="text_4"><g style="fill:#52525b" transform="translate(203.199878 302.3904) scale(0.1 -0.1)"><use xlink:href="#PingFangSC-Regular-14"/><use transform="translate(40.09375 0)" xlink:href="#PingFangSC-Regular-18"/><use transform="translate(100.09375 0)" xlink:href="#PingFangSC-Regular-13"/><use transform="translate(160.09375 0)" xlink:href="#PingFangSC-Regular-13"/></g></g></g><g id="xtick_5"><g id="line2d_5"><g><use x="263.2" y="286.79" xlink:href="#m9ae200a82f" style="fill:#52525b;stroke:#52525b;stroke-width:.8"/></g></g><g id="text_5"><g style="fill:#52525b" transform="translate(251.199688 302.3904) scale(0.1 -0.1)"><defs><path id="PingFangSC-Regular-15" d="M 1984 4659 C 1523 4659 1146 4506 864 4198 C 582 3898 435 3488 435 2976 L 960 2976 C 966 3379 1062 3686 1242 3891 C 1408 4109 1651 4211 1965 4211 C 2259 4211 2496 4134 2662 3981 C 2829 3827 2912 3616 2912 3334 C 2912 3040 2790 2765 2560 2515 C 2438 2387 2202 2202 1843 1946 C 1357 1613 1030 1338 851 1133 C 544 794 397 416 397 0 L 3443 0 L 3443 467 L 1043 467 C 1126 774 1459 1126 2042 1517 C 2515 1837 2829 2086 2989 2253 C 3283 2573 3437 2931 3437 3328 C 3437 3725 3296 4051 3027 4294 C 2752 4538 2406 4659 1984 4659 z" transform="scale(0.015625)"/></defs><use xlink:href="#PingFangSC-Regular-15"/><use transform="translate(60 0)" xlink:href="#PingFangSC-Regular-13"/><use transform="translate(120 0)" xlink:href="#PingFangSC-Regular-13"/><use transform="translate(180 0)" xlink:href="#PingFangSC-Regular-13"/></g></g></g><g id="xtick_6"><g id="line2d_6"><g><use x="312.195" y="286.79" xlink:href="#m9ae200a82f" style="fill:#52525b;stroke:#52525b;stroke-width:.8"/></g></g><g id="text_6"><g style="fill:#52525b" transform="translate(300.19481 302.3904) scale(0.1 -0.1)"><use xlink:href="#PingFangSC-Regular-15"/><use transform="translate(60 0)" xlink:href="#PingFangSC-Regular-18"/><use transform="translate(120 0)" xlink:href="#PingFangSC-Regular-13"/><use transform="translate(180 0)" xlink:href="#PingFangSC-Regular-13"/></g></g></g><g id="xtick_7"><g id="line2d_7"><g><use x="361.19" y="286.79" xlink:href="#m9ae200a82f" style="fill:#52525b;stroke:#52525b;stroke-width:.8"/></g></g><g id="text_7"><g style="fill:#52525b" transform="translate(349.189932 302.3904) scale(0.1 -0.1)"><defs><path id="PingFangSC-Regular-16" d="M 1965 4659 C 1530 4659 1178 4538 909 4288 C 627 4038 461 3693 422 3251 L 941 3251 C 973 3558 1075 3795 1254 3962 C 1427 4128 1664 4205 1971 4205 C 2266 4205 2502 4134 2669 3981 C 2822 3840 2906 3642 2906 3386 C 2906 3130 2822 2931 2662 2790 C 2502 2656 2272 2586 1965 2586 L 1613 2586 L 1613 2176 L 1984 2176 C 2304 2176 2547 2106 2726 1952 C 2906 1798 2995 1587 2995 1312 C 2995 1043 2899 819 2720 640 C 2522 454 2259 358 1933 358 C 1645 358 1408 442 1216 595 C 992 781 870 1056 858 1414 L 326 1414 C 365 902 544 512 870 243 C 1146 26 1498 -90 1933 -90 C 2406 -90 2790 45 3085 314 C 3373 576 3520 915 3520 1331 C 3520 1600 3443 1824 3290 2003 C 3149 2182 2944 2310 2675 2394 C 3174 2560 3424 2906 3424 3418 C 3424 3802 3290 4102 3027 4326 C 2758 4550 2400 4659 1965 4659 z" transform="scale(0.015625)"/></defs><use xlink:href="#PingFangSC-Regular-16"/><use transform="translate(60 0)" xlink:href="#PingFangSC-Regular-13"/><use transform="translate(120 0)" xlink:href="#PingFangSC-Regular-13"/><use transform="translate(180 0)" xlink:href="#PingFangSC-Regular-13"/></g></g></g><g id="xtick_8"><g id="line2d_8"><g><use x="410.185" y="286.79" xlink:href="#m9ae200a82f" style="fill:#52525b;stroke:#52525b;stroke-width:.8"/></g></g><g id="text_8"><g style="fill:#52525b" transform="translate(398.185054 302.3904) scale(0.1 -0.1)"><use xlink:href="#PingFangSC-Regular-16"/><use transform="translate(60 0)" xlink:href="#PingFangSC-Regular-18"/><use transform="translate(120 0)" xlink:href="#PingFangSC-Regular-13"/><use transform="translate(180 0)" xlink:href="#PingFangSC-Regular-13"/></g></g></g><g id="xtick_9"><g id="line2d_9"><g><use x="459.18" y="286.79" xlink:href="#m9ae200a82f" style="fill:#52525b;stroke:#52525b;stroke-width:.8"/></g></g><g id="text_9"><g style="fill:#52525b" transform="translate(447.180176 302.3904) scale(0.1 -0.1)"><defs><path id="PingFangSC-Regular-17" d="M 2458 4570 L 154 1536 L 154 1037 L 2451 1037 L 2451 0 L 2950 0 L 2950 1037 L 3693 1037 L 3693 1466 L 2950 1466 L 2950 4570 L 2458 4570 z M 2432 3885 L 2451 3885 L 2451 1466 L 595 1466 L 2432 3885 z" transform="scale(0.015625)"/></defs><use xlink:href="#PingFangSC-Regular-17"/><use transform="translate(60 0)" xlink:href="#PingFangSC-Regular-13"/><use transform="translate(120 0)" xlink:href="#PingFangSC-Regular-13"/><use transform="translate(180 0)" xlink:href="#PingFangSC-Regular-13"/></g></g></g><g id="text_10"><g style="fill:#52525b" transform="translate(189.310919 316.3904) scale(0.1 -0.1)"><defs><path id="PingFangSC-Regular-762" d="M 352 4845 L 352 4397 L 4755 4397 L 4755 160 C 4755 -58 4646 -173 4442 -173 C 4122 -173 3782 -160 3430 -147 L 3533 -595 L 4602 -595 C 5011 -595 5216 -378 5216 45 L 5216 4397 L 6061 4397 L 6061 4845 L 352 4845 z M 3584 3418 L 1094 3418 L 1094 506 L 1542 506 L 1542 1069 L 3584 1069 L 3584 3418 z M 1542 1491 L 1542 3002 L 3142 3002 L 3142 1491 L 1542 1491 z" transform="scale(0.015625)"/><path id="PingFangSC-Regular-12a0" d="M 1363 2995 L 2989 2995 L 2989 1875 L 1363 1875 L 1363 2995 z M 1338 1453 L 2989 1453 L 2989 -422 L 3462 -422 L 3462 1453 L 5203 1453 L 5203 339 C 5203 70 5082 -64 4851 -64 C 4634 -64 4397 -51 4141 -38 L 4262 -493 L 4998 -493 C 5446 -493 5670 -269 5670 179 L 5670 4973 L 902 4973 L 902 1901 C 890 1024 678 301 269 -269 L 621 -582 C 1030 -45 1267 634 1338 1453 z M 5203 1875 L 3462 1875 L 3462 2995 L 5203 2995 L 5203 1875 z M 5203 3424 L 3462 3424 L 3462 4525 L 5203 4525 L 5203 3424 z M 2989 4525 L 2989 3424 L 1363 3424 L 1363 4525 L 2989 4525 z" transform="scale(0.015625)"/><path id="PingFangSC-Regular-3" transform="scale(0.015625)"/><path id="PingFangSC-Regular-24" d="M 1798 4570 L 0 0 L 563 0 L 1050 1280 L 3149 1280 L 3635 0 L 4205 0 L 2406 4570 L 1798 4570 z M 1216 1722 L 2093 4006 L 2118 4006 L 2982 1722 L 1216 1722 z" transform="scale(0.015625)"/><path id="PingFangSC-Regular-2c" d="M 499 4570 L 499 0 L 1018 0 L 1018 4570 L 499 4570 z" transform="scale(0.015625)"/><path id="PingFangSC-Regular-35" d="M 461 4570 L 461 0 L 986 0 L 986 1965 L 2368 1965 C 2656 1965 2874 1914 3027 1798 C 3194 1683 3290 1485 3315 1216 L 3373 608 C 3392 352 3456 154 3558 0 L 4128 0 C 3994 166 3910 390 3885 672 L 3814 1376 C 3763 1837 3520 2112 3085 2208 L 3085 2221 C 3347 2285 3552 2413 3706 2618 C 3846 2816 3917 3040 3917 3296 C 3917 3718 3776 4038 3507 4256 C 3245 4467 2886 4570 2432 4570 L 461 4570 z M 986 4115 L 2368 4115 C 2720 4115 2982 4045 3149 3904 C 3302 3770 3386 3558 3386 3277 C 3386 3008 3302 2803 3142 2656 C 2963 2502 2701 2419 2368 2419 L 986 2419 L 986 4115 z" transform="scale(0.015625)"/><path id="PingFangSC-Regular-9" d="M 1952 4250 C 2144 4250 2298 4198 2413 4083 C 2515 3981 2566 3853 2566 3686 C 2566 3418 2368 3168 1971 2938 C 1920 2912 1875 2886 1837 2861 C 1702 3014 1600 3136 1536 3226 C 1395 3418 1331 3571 1331 3693 C 1331 3872 1382 4006 1498 4096 C 1600 4198 1754 4250 1952 4250 z M 1414 2624 L 864 2317 C 467 2029 269 1670 269 1248 C 269 819 422 486 736 243 C 1024 26 1402 -90 1869 -90 C 2477 -90 2970 128 3354 563 L 3885 0 L 4550 0 L 3642 960 C 3904 1427 4051 1997 4077 2675 L 3558 2675 C 3526 2157 3430 1715 3264 1357 L 2118 2566 C 2304 2682 2483 2803 2662 2918 C 2944 3149 3091 3411 3091 3718 C 3091 4013 2976 4243 2758 4410 C 2554 4576 2285 4659 1965 4659 C 1638 4659 1370 4576 1158 4410 C 928 4230 813 3994 813 3686 C 813 3507 870 3322 998 3130 C 1075 3008 1210 2842 1414 2624 z M 1850 378 C 1542 378 1293 454 1101 608 C 896 774 794 986 794 1242 C 794 1498 902 1728 1133 1920 C 1306 2054 1498 2189 1702 2317 L 3008 928 C 2714 563 2330 378 1850 378 z" transform="scale(0.015625)"/><path id="PingFangSC-Regular-27" d="M 461 4570 L 461 0 L 2048 0 C 2765 0 3315 211 3699 627 C 4064 1024 4250 1581 4250 2285 C 4250 3002 4077 3558 3738 3942 C 3366 4365 2822 4570 2099 4570 L 461 4570 z M 986 4115 L 2016 4115 C 2618 4115 3053 3962 3334 3648 C 3597 3354 3731 2899 3731 2285 C 3731 1690 3584 1235 3302 928 C 3002 614 2554 454 1958 454 L 986 454 L 986 4115 z" transform="scale(0.015625)"/><path id="PingFangSC-Regular-14d2" d="M 1133 3782 L 1133 1267 L 1946 1267 L 1946 1018 C 1946 966 1939 902 1933 838 L 365 838 L 365 429 L 1818 429 C 1779 352 1734 282 1683 211 C 1504 19 1190 -141 742 -269 L 979 -634 C 1472 -493 1830 -301 2048 -51 C 2163 83 2246 243 2310 429 L 4128 429 L 4128 -653 L 4582 -653 L 4582 429 L 6035 429 L 6035 838 L 4582 838 L 4582 1267 L 5344 1267 L 5344 3782 L 1133 3782 z M 2406 1267 L 4128 1267 L 4128 838 L 2394 838 C 2400 896 2406 954 2406 1018 L 2406 1267 z M 4896 1626 L 1581 1626 L 1581 2022 L 4896 2022 L 4896 1626 z M 1581 2355 L 1581 2714 L 4896 2714 L 4896 2355 L 1581 2355 z M 1581 3040 L 1581 3424 L 4896 3424 L 4896 3040 L 1581 3040 z M 1325 4410 L 1818 4410 C 1946 4237 2061 4058 2163 3878 L 2547 4019 C 2477 4141 2387 4269 2278 4410 L 3117 4410 L 3117 4800 L 1530 4800 C 1581 4922 1638 5050 1690 5178 L 1248 5274 C 1075 4787 794 4339 403 3930 L 787 3693 C 992 3910 1171 4154 1325 4410 z M 3955 4429 L 4442 4429 C 4582 4250 4704 4064 4806 3872 L 5190 4013 C 5114 4141 5024 4282 4909 4429 L 5978 4429 L 5978 4819 L 4154 4819 L 4288 5165 L 3840 5261 C 3699 4826 3469 4422 3149 4064 L 3526 3821 C 3686 4006 3827 4211 3955 4429 z" transform="scale(0.015625)"/><path id="PingFangSC-Regular-6ce" d="M 2669 5210 L 2669 4570 C 2662 4352 2656 4134 2643 3917 L 742 3917 L 742 3469 L 2605 3469 C 2528 2720 2387 2080 2176 1549 C 1843 806 1254 205 416 -243 L 666 -634 C 1523 -198 2138 410 2522 1190 C 2797 1805 2982 2560 3078 3469 L 5101 3469 C 5062 1958 4986 966 4870 499 C 4755 58 4518 -166 4154 -166 C 3923 -166 3674 -160 3418 -147 L 3546 -595 L 4384 -595 C 4717 -570 4960 -435 5114 -179 C 5267 90 5376 563 5440 1235 C 5504 1920 5542 2816 5568 3917 L 3117 3917 C 3130 4128 3136 4346 3142 4570 L 3142 5210 L 2669 5210 z" transform="scale(0.015625)"/><path id="PingFangSC-Regular-b" d="M 1312 5293 C 1030 4883 813 4442 653 3974 C 461 3424 371 2867 371 2298 C 371 1741 461 1184 653 634 C 813 173 1030 -269 1312 -685 L 1760 -685 C 1498 -256 1293 186 1152 640 C 960 1203 870 1760 870 2304 C 870 2854 960 3405 1152 3968 C 1293 4429 1498 4870 1760 5293 L 1312 5293 z" transform="scale(0.015625)"/><path id="PingFangSC-Regular-2b" d="M 461 4570 L 461 0 L 986 0 L 986 2131 L 3629 2131 L 3629 0 L 4154 0 L 4154 4570 L 3629 4570 L 3629 2586 L 986 2586 L 986 4570 L 461 4570 z" transform="scale(0.015625)"/><path id="PingFangSC-Regular-2a" d="M 2413 4659 C 1741 4659 1210 4422 819 3942 C 448 3501 269 2944 269 2266 C 269 1587 454 1030 826 602 C 1222 141 1786 -90 2509 -90 C 2886 -90 3238 -38 3571 64 C 3885 166 4154 301 4371 480 L 4371 2349 L 2419 2349 L 2419 1894 L 3853 1894 L 3853 730 C 3693 627 3501 538 3277 474 C 3046 410 2810 371 2560 371 C 1965 371 1517 550 1216 902 C 934 1235 794 1690 794 2266 C 794 2854 934 3322 1229 3667 C 1523 4019 1914 4192 2413 4192 C 2816 4192 3142 4096 3392 3898 C 3629 3712 3782 3450 3853 3104 L 4378 3104 C 4294 3603 4096 3981 3776 4243 C 3437 4525 2982 4659 2413 4659 z" transform="scale(0.015625)"/><path id="PingFangSC-Regular-33" d="M 461 4570 L 461 0 L 986 0 L 986 1869 L 2323 1869 C 3373 1869 3904 2323 3904 3226 C 3904 4122 3379 4570 2330 4570 L 461 4570 z M 986 4115 L 2298 4115 C 2662 4115 2931 4045 3110 3891 C 3290 3757 3379 3533 3379 3226 C 3379 2918 3290 2694 3117 2547 C 2938 2400 2669 2323 2298 2323 L 986 2323 L 986 4115 z" transform="scale(0.015625)"/><path id="PingFangSC-Regular-38" d="M 461 4570 L 461 1754 C 461 1158 614 704 922 384 C 1229 70 1683 -90 2285 -90 C 2886 -90 3341 70 3654 390 C 3955 704 4109 1158 4109 1754 L 4109 4570 L 3584 4570 L 3584 1747 C 3584 1299 3482 960 3283 730 C 3066 493 2733 371 2285 371 C 1830 371 1498 493 1286 730 C 1082 960 986 1299 986 1747 L 986 4570 L 461 4570 z" transform="scale(0.015625)"/><path id="PingFangSC-Regular-a5c" d="M 2893 -570 C 3328 -570 3552 -339 3552 109 L 3552 5133 L 3078 5133 L 3078 230 C 3078 -6 2957 -128 2720 -128 C 2432 -128 2125 -115 1805 -90 L 1914 -570 L 2893 -570 z M 1363 3648 C 1107 2496 730 1581 218 902 L 614 550 C 1114 1216 1517 2189 1824 3469 L 1363 3648 z M 4998 3802 L 4582 3539 C 5075 2432 5466 1427 5754 518 L 6163 806 C 5894 1658 5504 2656 4998 3802 z" transform="scale(0.015625)"/><path id="PingFangSC-Regular-df8" d="M 2368 4749 L 525 4749 L 525 -122 L 973 -122 L 973 461 L 1920 461 L 1920 32 L 2368 32 L 2368 4749 z M 973 890 L 973 2432 L 1920 2432 L 1920 890 L 973 890 z M 973 2861 L 973 4326 L 1920 4326 L 1920 2861 L 973 2861 z M 3290 2842 L 2912 2605 C 3296 2016 3597 1478 3821 998 L 4205 1267 C 3994 1715 3686 2240 3290 2842 z M 4749 -576 C 5146 -576 5344 -371 5344 32 L 5344 3610 L 6131 3610 L 6131 4051 L 5344 4051 L 5344 5178 L 4877 5178 L 4877 4051 L 2662 4051 L 2662 3610 L 4877 3610 L 4877 147 C 4877 -51 4781 -154 4595 -154 C 4256 -154 3904 -141 3533 -128 L 3629 -576 L 4749 -576 z" transform="scale(0.015625)"/><path id="PingFangSC-Regular-c" d="M 371 5293 C 627 4870 832 4429 979 3968 C 1165 3405 1261 2854 1261 2304 C 1261 1760 1165 1203 979 640 C 832 186 627 -256 371 -685 L 819 -685 C 1094 -269 1312 173 1478 634 C 1664 1184 1760 1741 1760 2298 C 1760 2867 1664 3424 1478 3974 C 1312 4442 1094 4883 819 5293 L 371 5293 z" transform="scale(0.015625)"/></defs><use xlink:href="#PingFangSC-Regular-762"/><use transform="translate(100 0)" xlink:href="#PingFangSC-Regular-12a0"/><use transform="translate(200 0)" xlink:href="#PingFangSC-Regular-3"/><use transform="translate(233.296875 0)" xlink:href="#PingFangSC-Regular-24"/><use transform="translate(299 0)" xlink:href="#PingFangSC-Regular-2c"/><use transform="translate(322.703125 0)" xlink:href="#PingFangSC-Regular-3"/><use transform="translate(356 0)" xlink:href="#PingFangSC-Regular-35"/><use transform="translate(423.59375 0)" xlink:href="#PingFangSC-Regular-9"/><use transform="translate(496.1875 0)" xlink:href="#PingFangSC-Regular-27"/><use transform="translate(566.78125 0)" xlink:href="#PingFangSC-Regular-3"/><use transform="translate(600.078125 0)" xlink:href="#PingFangSC-Regular-14d2"/><use transform="translate(700.078125 0)" xlink:href="#PingFangSC-Regular-6ce"/><use transform="translate(800.078125 0)" xlink:href="#PingFangSC-Regular-b"/><use transform="translate(833.375 0)" xlink:href="#PingFangSC-Regular-2b"/><use transform="translate(905.375 0)" xlink:href="#PingFangSC-Regular-14"/><use transform="translate(945.46875 0)" xlink:href="#PingFangSC-Regular-13"/><use transform="translate(1005.46875 0)" xlink:href="#PingFangSC-Regular-13"/><use transform="translate(1065.46875 0)" xlink:href="#PingFangSC-Regular-3"/><use transform="translate(1098.765625 0)" xlink:href="#PingFangSC-Regular-2a"/><use transform="translate(1173.5625 0)" xlink:href="#PingFangSC-Regular-33"/><use transform="translate(1237.765625 0)" xlink:href="#PingFangSC-Regular-38"/><use transform="translate(1309.171875 0)" xlink:href="#PingFangSC-Regular-3"/><use transform="translate(1342.46875 0)" xlink:href="#PingFangSC-Regular-a5c"/><use transform="translate(1442.46875 0)" xlink:href="#PingFangSC-Regular-df8"/><use transform="translate(1542.46875 0)" xlink:href="#PingFangSC-Regular-c"/></g></g></g><g id="matplotlib.axis_2"><g id="ytick_1"><g id="line2d_10"><defs><path id="m669bb1a01a" d="M 0 0 L -3.5 0" style="stroke:#52525b;stroke-width:.8"/></defs><g><use x="67.219" y="273.952" xlink:href="#m669bb1a01a" style="fill:#52525b;stroke:#52525b;stroke-width:.8"/></g></g><g id="text_11"><g style="fill:#52525b" transform="translate(48.2192 278.251663) scale(0.1 -0.1)"><use xlink:href="#PingFangSC-Regular-15"/><use transform="translate(60 0)" xlink:href="#PingFangSC-Regular-13"/></g></g></g><g id="ytick_2"><g id="line2d_11"><g><use x="67.219" y="241.855" xlink:href="#m669bb1a01a" style="fill:#52525b;stroke:#52525b;stroke-width:.8"/></g></g><g id="text_12"><g style="fill:#52525b" transform="translate(48.2192 246.154821) scale(0.1 -0.1)"><use xlink:href="#PingFangSC-Regular-15"/><use transform="translate(60 0)" xlink:href="#PingFangSC-Regular-18"/></g></g></g><g id="ytick_3"><g id="line2d_12"><g><use x="67.219" y="209.758" xlink:href="#m669bb1a01a" style="fill:#52525b;stroke:#52525b;stroke-width:.8"/></g></g><g id="text_13"><g style="fill:#52525b" transform="translate(48.2192 214.057979) scale(0.1 -0.1)"><use xlink:href="#PingFangSC-Regular-16"/><use transform="translate(60 0)" xlink:href="#PingFangSC-Regular-13"/></g></g></g><g id="ytick_4"><g id="line2d_13"><g><use x="67.219" y="177.661" xlink:href="#m669bb1a01a" style="fill:#52525b;stroke:#52525b;stroke-width:.8"/></g></g><g id="text_14"><g style="fill:#52525b" transform="translate(48.2192 181.961137) scale(0.1 -0.1)"><use xlink:href="#PingFangSC-Regular-16"/><use transform="translate(60 0)" xlink:href="#PingFangSC-Regular-18"/></g></g></g><g id="ytick_5"><g id="line2d_14"><g><use x="67.219" y="145.564" xlink:href="#m669bb1a01a" style="fill:#52525b;stroke:#52525b;stroke-width:.8"/></g></g><g id="text_15"><g style="fill:#52525b" transform="translate(48.2192 149.864295) scale(0.1 -0.1)"><use xlink:href="#PingFangSC-Regular-17"/><use transform="translate(60 0)" xlink:href="#PingFangSC-Regular-13"/></g></g></g><g id="ytick_6"><g id="line2d_15"><g><use x="67.219" y="113.467" xlink:href="#m669bb1a01a" style="fill:#52525b;stroke:#52525b;stroke-width:.8"/></g></g><g id="text_16"><g style="fill:#52525b" transform="translate(48.2192 117.767453) scale(0.1 -0.1)"><use xlink:href="#PingFangSC-Regular-17"/><use transform="translate(60 0)" xlink:href="#PingFangSC-Regular-18"/></g></g></g><g id="ytick_7"><g id="line2d_16"><g><use x="67.219" y="81.371" xlink:href="#m669bb1a01a" style="fill:#52525b;stroke:#52525b;stroke-width:.8"/></g></g><g id="text_17"><g style="fill:#52525b" transform="translate(48.2192 85.670611) scale(0.1 -0.1)"><use xlink:href="#PingFangSC-Regular-18"/><use transform="translate(60 0)" xlink:href="#PingFangSC-Regular-13"/></g></g></g><g id="ytick_8"><g id="line2d_17"><g><use x="67.219" y="49.274" xlink:href="#m669bb1a01a" style="fill:#52525b;stroke:#52525b;stroke-width:.8"/></g></g><g id="text_18"><g style="fill:#52525b" transform="translate(48.2192 53.573768) scale(0.1 -0.1)"><use xlink:href="#PingFangSC-Regular-18"/><use transform="translate(60 0)" xlink:href="#PingFangSC-Regular-18"/></g></g></g><g id="text_19"><g style="fill:#52525b" transform="translate(42.8192 221.213025) rotate(-90) scale(0.1 -0.1)"><defs><path id="PingFangSC-Regular-52" d="M 1875 3398 C 1376 3398 986 3232 691 2886 C 410 2560 269 2150 269 1651 C 269 1158 410 749 691 429 C 986 83 1376 -90 1875 -90 C 2368 -90 2765 83 3066 429 C 3341 749 3482 1158 3482 1651 C 3482 2150 3341 2560 3059 2886 C 2765 3232 2368 3398 1875 3398 z M 1875 2970 C 2221 2970 2496 2835 2701 2566 C 2874 2323 2963 2022 2963 1651 C 2963 1293 2874 986 2701 742 C 2496 474 2221 339 1875 339 C 1523 339 1248 474 1056 742 C 877 986 794 1286 794 1651 C 794 2022 877 2323 1056 2566 C 1248 2835 1523 2970 1875 2970 z" transform="scale(0.015625)"/><path id="PingFangSC-Regular-56" d="M 1568 3398 C 1197 3398 890 3315 659 3149 C 410 2982 288 2765 288 2483 C 288 2202 410 1990 666 1837 C 819 1734 1094 1638 1485 1542 C 1843 1453 2080 1382 2189 1331 C 2394 1229 2502 1088 2502 902 C 2502 531 2202 339 1613 339 C 1331 339 1120 390 979 493 C 838 608 742 794 704 1056 L 205 1056 C 282 294 755 -90 1626 -90 C 2560 -90 3027 256 3027 934 C 3027 1222 2893 1446 2630 1613 C 2458 1722 2176 1824 1779 1920 C 1446 2010 1216 2080 1094 2138 C 902 2234 813 2355 813 2496 C 813 2643 883 2758 1024 2842 C 1152 2931 1331 2970 1562 2970 C 1824 2970 2029 2918 2170 2816 C 2298 2726 2381 2573 2426 2368 L 2925 2368 C 2835 3059 2387 3398 1568 3398 z" transform="scale(0.015625)"/><path id="PingFangSC-Regular-57" d="M 1280 4378 L 774 4166 L 774 3309 L 109 3309 L 109 2880 L 774 2880 L 774 774 C 774 525 826 339 934 211 C 1050 70 1248 0 1517 0 L 2016 0 L 2016 429 L 1594 429 C 1478 429 1395 461 1350 512 C 1299 563 1280 653 1280 774 L 1280 2880 L 2099 2880 L 2099 3309 L 1280 3309 L 1280 4378 z" transform="scale(0.015625)"/><path id="PingFangSC-Regular-37" d="M 109 4570 L 109 4115 L 1722 4115 L 1722 0 L 2240 0 L 2240 4115 L 3853 4115 L 3853 4570 L 109 4570 z" transform="scale(0.015625)"/><path id="PingFangSC-Regular-55" d="M 1850 3398 C 1619 3398 1421 3328 1248 3187 C 1107 3078 992 2925 902 2733 L 902 3309 L 397 3309 L 397 0 L 902 0 L 902 1754 C 902 2061 986 2323 1165 2541 C 1338 2771 1555 2880 1811 2880 C 1971 2880 2138 2861 2304 2810 L 2304 3322 C 2182 3373 2029 3398 1850 3398 z" transform="scale(0.015625)"/><path id="PingFangSC-Regular-44" d="M 1837 3398 C 1440 3398 1126 3322 883 3168 C 614 3002 442 2739 371 2394 L 877 2355 C 928 2566 1037 2726 1210 2829 C 1363 2931 1562 2976 1805 2976 C 2381 2976 2669 2701 2669 2144 L 2669 1971 L 1875 1958 C 1376 1952 992 1856 723 1677 C 416 1485 269 1203 269 826 C 269 557 371 333 576 160 C 774 -6 1037 -90 1370 -90 C 1677 -90 1952 -19 2195 115 C 2400 230 2573 378 2701 557 L 2701 0 L 3181 0 L 3181 2125 C 3181 2509 3078 2810 2886 3027 C 2656 3277 2310 3398 1837 3398 z M 2669 1587 L 2669 1306 C 2669 1050 2547 819 2310 621 C 2067 416 1792 314 1478 314 C 1274 314 1107 365 979 461 C 851 563 794 685 794 838 C 794 1318 1165 1562 1907 1574 L 2669 1587 z" transform="scale(0.015625)"/><path id="PingFangSC-Regular-4c" d="M 819 4557 C 710 4557 621 4525 544 4448 C 467 4384 435 4294 435 4179 C 435 4070 467 3981 544 3904 C 621 3834 710 3795 819 3795 C 928 3795 1018 3834 1094 3904 C 1171 3981 1210 4070 1210 4179 C 1210 4294 1171 4384 1094 4448 C 1018 4525 928 4557 819 4557 z M 563 3309 L 563 0 L 1075 0 L 1075 3309 L 563 3309 z" transform="scale(0.015625)"/><path id="PingFangSC-Regular-51" d="M 1946 3398 C 1728 3398 1530 3347 1350 3245 C 1171 3149 1024 3008 909 2822 L 909 3309 L 397 3309 L 397 0 L 909 0 L 909 1997 C 928 2298 1024 2534 1203 2714 C 1370 2880 1568 2963 1798 2963 C 2374 2963 2669 2643 2669 1997 L 2669 0 L 3181 0 L 3181 2035 C 3181 2944 2765 3398 1946 3398 z" transform="scale(0.015625)"/><path id="PingFangSC-Regular-25" d="M 461 4570 L 461 0 L 2490 0 C 2957 0 3328 96 3597 275 C 3910 493 4070 826 4070 1274 C 4070 1581 3981 1824 3814 2016 C 3648 2208 3418 2336 3117 2387 C 3347 2464 3533 2586 3674 2752 C 3808 2938 3878 3162 3878 3418 C 3878 3776 3757 4058 3514 4262 C 3264 4467 2925 4570 2502 4570 L 461 4570 z M 986 4128 L 2381 4128 C 2701 4128 2944 4070 3110 3942 C 3277 3814 3360 3622 3360 3366 C 3360 3104 3270 2906 3104 2771 C 2938 2643 2694 2573 2374 2573 L 986 2573 L 986 4128 z M 986 2138 L 2445 2138 C 2797 2138 3066 2074 3251 1933 C 3443 1792 3546 1574 3546 1280 C 3546 986 3430 762 3206 621 C 3014 506 2765 442 2445 442 L 986 442 L 986 2138 z" transform="scale(0.015625)"/><path id="PingFangSC-Regular-48" d="M 1760 3398 C 1280 3398 902 3226 621 2880 C 339 2554 205 2144 205 1658 C 205 1120 346 698 640 378 C 922 70 1306 -90 1779 -90 C 2208 -90 2560 38 2835 282 C 3059 486 3206 742 3283 1062 L 2771 1062 C 2688 832 2579 659 2438 544 C 2272 410 2048 339 1779 339 C 1466 339 1216 442 1037 646 C 858 851 762 1139 736 1510 L 3347 1510 C 3334 2086 3206 2541 2963 2861 C 2694 3219 2291 3398 1760 3398 z M 1773 2970 C 2400 2970 2752 2618 2816 1907 L 749 1907 C 781 2234 883 2490 1062 2682 C 1242 2874 1478 2970 1773 2970 z" transform="scale(0.015625)"/><path id="PingFangSC-Regular-46" d="M 1824 3398 C 1331 3398 941 3226 659 2874 C 397 2554 269 2144 269 1638 C 269 1133 397 723 659 410 C 934 77 1318 -90 1818 -90 C 2227 -90 2554 19 2803 230 C 3059 448 3219 774 3296 1197 L 2784 1197 C 2707 627 2381 339 1818 339 C 1485 339 1229 461 1056 691 C 877 922 794 1242 794 1645 C 794 2048 883 2368 1062 2605 C 1248 2848 1504 2970 1824 2970 C 2086 2970 2298 2912 2464 2784 C 2624 2656 2726 2464 2771 2208 L 3277 2208 C 3219 2611 3066 2912 2810 3110 C 2560 3302 2234 3398 1824 3398 z" transform="scale(0.015625)"/><path id="PingFangSC-Regular-4b" d="M 397 4659 L 397 0 L 909 0 L 909 1888 C 909 2195 992 2458 1165 2662 C 1331 2867 1542 2970 1798 2970 C 2074 2970 2285 2886 2438 2720 C 2579 2554 2656 2317 2656 2010 L 2656 0 L 3168 0 L 3168 2086 C 3168 2509 3066 2835 2861 3059 C 2656 3290 2355 3398 1971 3398 C 1747 3398 1549 3347 1370 3245 C 1178 3136 1024 2976 909 2765 L 909 4659 L 397 4659 z" transform="scale(0.015625)"/><path id="PingFangSC-Regular-e" d="M 1722 3270 L 1722 1875 L 320 1875 L 320 1440 L 1722 1440 L 1722 38 L 2157 38 L 2157 1440 L 3552 1440 L 3552 1875 L 2157 1875 L 2157 3270 L 1722 3270 z" transform="scale(0.015625)"/><path id="PingFangSC-Regular-1593" d="M 2285 755 C 1728 493 1075 282 326 128 L 384 -333 C 1101 -173 1734 38 2285 307 L 2285 755 z M 1299 5216 C 1069 4448 800 3770 493 3174 C 442 3098 378 3040 307 3008 L 422 2611 L 1408 2803 C 1094 2189 826 1747 608 1491 C 550 1440 480 1402 397 1363 L 518 954 C 1088 1037 1683 1197 2298 1427 L 2298 1843 C 1882 1677 1466 1542 1043 1440 C 1389 1901 1837 2682 2374 3782 L 1952 3942 C 1837 3686 1722 3437 1613 3206 C 1344 3142 1082 3091 819 3053 C 1126 3552 1427 4218 1728 5050 L 1299 5216 z M 5869 4531 L 4422 4531 C 4320 4813 4211 5062 4096 5280 L 3629 5203 C 3750 4998 3859 4774 3962 4531 L 2566 4531 L 2566 3334 L 3002 3334 L 3002 4115 L 5421 4115 L 5421 3334 L 5869 3334 L 5869 4531 z M 2995 1363 C 2848 794 2611 275 2285 -192 L 2669 -442 C 2995 45 3245 614 3424 1274 L 2995 1363 z M 5363 1421 L 4966 1293 C 5222 806 5466 250 5683 -390 L 6086 -211 C 5882 371 5645 915 5363 1421 z M 3987 -582 C 4326 -582 4499 -378 4499 26 L 4499 1856 L 5862 1856 L 5862 2291 L 2573 2291 L 2573 1856 L 4058 1856 L 4058 141 C 4058 -70 3981 -179 3827 -179 C 3661 -179 3494 -166 3315 -147 L 3411 -582 L 3987 -582 z M 3059 3418 L 3059 3002 L 5382 3002 L 5382 3418 L 3059 3418 z" transform="scale(0.015625)"/><path id="PingFangSC-Regular-773" d="M 3034 5235 C 2278 4346 1338 3603 198 3002 L 442 2560 C 1581 3200 2502 3949 3200 4819 C 3955 3898 4864 3149 5933 2573 L 6182 3014 C 5120 3552 4179 4294 3366 5235 L 3034 5235 z M 5222 1946 L 1178 1946 L 1178 -634 L 1626 -634 L 1626 -250 L 4774 -250 L 4774 -634 L 5222 -634 L 5222 1946 z M 1626 192 L 1626 1510 L 4774 1510 L 4774 192 L 1626 192 z M 1536 3200 L 1536 2758 L 4864 2758 L 4864 3200 L 1536 3200 z" transform="scale(0.015625)"/><path id="PingFangSC-Regular-693" d="M 2310 5094 C 2054 4608 1773 4192 1466 3834 C 1114 3430 717 3104 282 2854 L 531 2451 C 1062 2810 1491 3174 1811 3546 C 2112 3885 2413 4320 2714 4851 L 2310 5094 z M 2522 2240 C 2387 1638 2189 1152 1920 781 C 1619 397 1171 45 582 -275 L 877 -659 C 1530 -294 2022 115 2349 576 C 2624 986 2835 1542 2989 2240 L 4582 2240 C 4550 1242 4480 595 4365 288 C 4256 -6 4032 -154 3686 -154 C 3354 -154 3002 -147 2630 -134 L 2758 -589 L 3923 -589 C 4243 -570 4474 -467 4614 -282 C 4762 -90 4864 256 4928 742 C 4992 1235 5030 1882 5050 2682 L 1229 2682 L 1229 2240 L 2522 2240 z M 4115 5178 L 3718 4954 C 4109 3942 4800 3117 5792 2477 L 6099 2842 C 5146 3411 4486 4192 4115 5178 z" transform="scale(0.015625)"/></defs><use xlink:href="#PingFangSC-Regular-33"/><use transform="translate(64.203125 0)" xlink:href="#PingFangSC-Regular-52"/><use transform="translate(122.796875 0)" xlink:href="#PingFangSC-Regular-56"/><use transform="translate(173.296875 0)" xlink:href="#PingFangSC-Regular-57"/><use transform="translate(208.796875 0)" xlink:href="#PingFangSC-Regular-37"/><use transform="translate(270.703125 0)" xlink:href="#PingFangSC-Regular-55"/><use transform="translate(307.203125 0)" xlink:href="#PingFangSC-Regular-44"/><use transform="translate(363.109375 0)" xlink:href="#PingFangSC-Regular-4c"/><use transform="translate(388.703125 0)" xlink:href="#PingFangSC-Regular-51"/><use transform="translate(444.609375 0)" xlink:href="#PingFangSC-Regular-25"/><use transform="translate(512.3125 0)" xlink:href="#PingFangSC-Regular-48"/><use transform="translate(567.8125 0)" xlink:href="#PingFangSC-Regular-51"/><use transform="translate(623.71875 0)" xlink:href="#PingFangSC-Regular-46"/><use transform="translate(678.421875 0)" xlink:href="#PingFangSC-Regular-4b"/><use transform="translate(734.015625 0)" xlink:href="#PingFangSC-Regular-e"/><use transform="translate(794.515625 0)" xlink:href="#PingFangSC-Regular-3"/><use transform="translate(827.8125 0)" xlink:href="#PingFangSC-Regular-1593"/><use transform="translate(927.8125 0)" xlink:href="#PingFangSC-Regular-773"/><use transform="translate(1027.8125 0)" xlink:href="#PingFangSC-Regular-693"/></g></g></g><g id="line2d_18"><path d="M 67.2192 183.912496 L 73.11335 180.07974 L 79.0075 176.492572 L 84.90165 173.134937 L 91.778158 169.487799 L 98.654667 166.110427 L 105.531175 162.982233 L 112.407683 160.084142 L 120.26655 157.031188 L 128.125417 154.231421 L 135.984283 151.662543 L 144.825508 149.023147 L 153.666733 146.623567 L 163.490317 144.209381 L 173.3139 142.031677 L 184.119842 139.87742 L 194.925784 137.945071 L 206.714084 136.05707 L 219.484742 134.234699 L 233.237759 132.492166 L 248.955492 130.73373 L 265.655584 129.089486 L 284.320392 127.474588 L 304.949917 125.914492 L 327.544159 124.434352 L 351.120759 123.11477 L 375.679717 121.964086 L 401.221034 120.990833 L 428.727067 120.170805 L 459.180176 119.496296 L 459.180176 119.496296" clip-path="url(#p216faa16c7)" style="fill:none;stroke:#a1a1aa;stroke-width:1.6;stroke-linecap:square"/></g><g id="line2d_19"><path d="M 67.2192 190.316591 L 73.11335 186.773005 L 79.989858 182.924281 L 86.866367 179.360696 L 93.742875 176.060523 L 100.619383 173.003637 L 107.495892 170.171394 L 115.354758 167.187514 L 123.213625 164.450742 L 131.072492 161.939271 L 139.913717 159.358326 L 148.754942 157.011249 L 158.578525 154.649031 L 168.402108 152.517173 L 179.20805 150.406898 L 190.99635 148.349819 L 202.78465 146.513711 L 216.537667 144.60931 L 231.273042 142.807047 L 246.990775 141.108084 L 264.673225 139.420484 L 284.320392 137.769287 L 305.932275 136.174827 L 329.508875 134.660728 L 354.067834 133.309431 L 379.60915 132.134505 L 405.150467 131.180732 L 432.656501 130.377349 L 459.180176 129.791036 L 459.180176 129.791036" clip-path="url(#p216faa16c7)" style="fill:none;stroke-dasharray:10.24,2.56,1.6,2.56;stroke-dashoffset:0;stroke:#a1a1aa;stroke-width:1.6"/></g><g id="line2d_20"><path d="M 67.2192 222.535622 L 74.095708 219.543931 L 80.972217 216.775552 L 88.831083 213.86357 L 96.68995 211.198123 L 104.548817 208.758006 L 113.390042 206.258106 L 122.231267 203.993685 L 132.05485 201.726175 L 141.878433 199.693081 L 152.684375 197.697348 L 163.490317 195.924745 L 175.278617 194.214309 L 188.049275 192.590125 L 201.802292 191.069564 L 216.537667 189.663371 L 233.237759 188.302123 L 251.902567 187.019526 L 272.532092 185.836552 L 295.126334 184.764091 L 320.66765 183.773117 L 349.156042 182.889235 L 380.591509 182.134894 L 415.956409 181.512249 L 456.233101 181.030021 L 459.180176 181.002365 L 459.180176 181.002365" clip-path="url(#p216faa16c7)" style="fill:none;stroke-dasharray:1.6,2.64;stroke-dashoffset:0;stroke:#a1a1aa;stroke-width:1.6"/></g><g id="patch_5"><path d="M 67.2192 286.7904 L 67.2192 42.8544" style="fill:none;stroke:#e4e4e7;stroke-width:.8;stroke-linejoin:miter;stroke-linecap:square"/></g><g id="patch_6"><path d="M 67.2192 286.7904 L 468.9792 286.7904" style="fill:none;stroke:#e4e4e7;stroke-width:.8;stroke-linejoin:miter;stroke-linecap:square"/></g><g id="line2d_21"><path d="M 67.2192 85.222232 L 468.9792 85.222232" clip-path="url(#p216faa16c7)" style="fill:none;stroke-dasharray:5.18,2.24;stroke-dashoffset:0;stroke:#27272a;stroke-width:1.4"/></g><g id="text_20"><g style="fill:#71717a" transform="translate(87.254517 258.141979) scale(0.09 -0.09)"><defs><path id="PingFangSC-Regular-d2d" d="M 3328 5222 L 3328 4198 L 2323 4198 L 2323 3782 L 3328 3782 L 3328 2720 L 2426 2720 L 2426 2298 L 3328 2298 L 3328 1190 L 2067 1190 L 2067 768 L 3328 768 L 3328 -640 L 3770 -640 L 3770 5222 L 3328 5222 z M 992 -582 C 1363 -582 1555 -403 1555 -45 L 1555 1792 C 1766 1888 1971 1990 2176 2099 L 2176 2573 C 1971 2458 1766 2355 1555 2253 L 1555 3558 L 2125 3558 L 2125 4000 L 1555 4000 L 1555 5210 L 1107 5210 L 1107 4000 L 416 4000 L 416 3558 L 1107 3558 L 1107 2067 C 838 1965 570 1882 294 1811 L 403 1344 C 640 1421 877 1510 1107 1600 L 1107 70 C 1107 -83 1011 -160 832 -160 C 666 -160 486 -147 301 -134 L 403 -582 L 992 -582 z M 4531 5222 L 4531 -640 L 4979 -640 L 4979 768 L 6118 768 L 6118 1190 L 4979 1190 L 4979 2298 L 5939 2298 L 5939 2720 L 4979 2720 L 4979 3782 L 6074 3782 L 6074 4198 L 4979 4198 L 4979 5222 L 4531 5222 z" transform="scale(0.015625)"/><path id="PingFangSC-Regular-777" d="M 2272 -243 L 5133 -243 L 5133 -621 L 5600 -621 L 5600 2080 L 2931 2080 C 4134 2637 4960 3354 5421 4230 L 5421 4640 L 2925 4640 C 3053 4813 3168 4992 3270 5184 L 2765 5242 C 2381 4563 1645 3987 550 3520 L 858 3123 C 1536 3443 2086 3802 2522 4205 L 4890 4205 C 4589 3680 4115 3226 3462 2835 C 3187 3072 2803 3341 2317 3642 L 1920 3392 C 2406 3117 2790 2861 3072 2624 C 2336 2253 1414 1958 307 1728 L 550 1286 C 998 1395 1414 1510 1811 1638 L 1811 -621 L 2272 -621 L 2272 -243 z M 5133 205 L 2272 205 L 2272 1651 L 5133 1651 L 5133 205 z" transform="scale(0.015625)"/><path id="PingFangSC-Regular-8c1" d="M 2298 2246 L 2298 1798 L 3763 1798 L 3763 32 L 2035 32 L 2035 -422 L 6048 -422 L 6048 32 L 4230 32 L 4230 1798 L 5760 1798 L 5760 2246 L 4230 2246 L 4230 3437 L 3763 3437 L 3763 2246 L 2298 2246 z M 1267 1965 L 1267 -659 L 1722 -659 L 1722 2490 C 2067 2925 2368 3398 2618 3904 L 6042 3904 L 6042 4358 L 2822 4358 C 2938 4634 3034 4922 3123 5216 L 2643 5274 C 2554 4960 2438 4653 2310 4358 L 448 4358 L 448 3904 L 2093 3904 C 1645 3053 1024 2298 224 1638 L 512 1261 C 781 1485 1030 1722 1267 1965 z" transform="scale(0.015625)"/><path id="PingFangSC-Regular-f8c" d="M 2035 5043 L 2035 403 C 1779 346 1510 288 1229 230 L 1229 3968 L 774 3968 L 774 147 C 589 122 397 90 205 58 L 269 -410 C 1472 -218 2547 32 3494 346 L 3494 813 C 3174 710 2842 608 2490 518 L 2490 2720 L 3475 2720 L 3475 3168 L 2490 3168 L 2490 5043 L 2035 5043 z M 5824 4019 C 5363 3622 4851 3296 4288 3040 L 4288 5152 L 3821 5152 L 3821 250 C 3821 -198 4032 -422 4467 -422 L 5178 -422 C 5459 -422 5670 -346 5805 -205 C 5958 -26 6054 454 6106 1242 L 5670 1382 C 5638 717 5574 320 5478 186 C 5402 77 5274 19 5094 19 L 4614 19 C 4397 19 4288 128 4288 346 L 4288 2586 C 4973 2874 5574 3226 6093 3642 L 5824 4019 z" transform="scale(0.015625)"/><path id="PingFangSC-Regular-704" d="M 2106 3936 L 1773 3616 C 2387 3149 2944 2688 3450 2240 C 2925 1677 2304 1242 1587 947 L 1856 531 C 2592 851 3238 1312 3802 1914 C 4301 1453 4736 998 5114 550 L 5472 909 C 5062 1357 4608 1811 4109 2272 C 4493 2758 4826 3328 5114 3981 L 4698 4205 C 4429 3597 4115 3059 3750 2592 C 3245 3040 2694 3488 2106 3936 z M 755 4966 L 755 -371 L 6022 -371 L 6022 70 L 1197 70 L 1197 4525 L 5837 4525 L 5837 4966 L 755 4966 z" transform="scale(0.015625)"/><path id="PingFangSC-Regular-1cf5" d="M 1958 3494 L 1958 512 L 4390 512 L 4390 3494 L 1958 3494 z M 3962 922 L 2394 922 L 2394 1798 L 3962 1798 L 3962 922 z M 2394 2208 L 2394 3085 L 3962 3085 L 3962 2208 L 2394 2208 z M 5107 -589 C 5536 -589 5754 -358 5754 90 L 5754 4909 L 2822 4909 L 2822 4480 L 5306 4480 L 5306 218 C 5306 -38 5203 -173 5011 -173 L 4454 -160 L 4570 -589 L 5107 -589 z M 634 4166 L 634 -646 L 1082 -646 L 1082 4166 L 634 4166 z M 1562 5286 L 1139 5101 C 1427 4755 1690 4358 1933 3910 L 2342 4128 C 2118 4550 1856 4934 1562 5286 z" transform="scale(0.015625)"/></defs><use xlink:href="#PingFangSC-Regular-d2d"/><use transform="translate(100 0)" xlink:href="#PingFangSC-Regular-777"/><use transform="translate(200 0)" xlink:href="#PingFangSC-Regular-8c1"/><use transform="translate(300 0)" xlink:href="#PingFangSC-Regular-f8c"/><use transform="translate(400 0)" xlink:href="#PingFangSC-Regular-704"/><use transform="translate(500 0)" xlink:href="#PingFangSC-Regular-1cf5"/></g><g style="fill:#71717a" transform="translate(96.254517 270.741979) scale(0.09 -0.09)"><defs><path id="PingFangSC-Regular-e84" d="M 1760 2598 C 1926 2355 2118 2042 2349 1658 L 2624 2061 C 2330 2445 2042 2797 1760 3110 L 1760 3533 L 2528 3533 L 2528 3974 L 1760 3974 L 1760 5222 L 1293 5222 L 1293 3974 L 358 3974 L 358 3533 L 1261 3533 C 1056 2726 723 2016 256 1389 L 454 883 C 800 1408 1082 1997 1293 2650 L 1293 -614 L 1760 -614 L 1760 2598 z M 3110 4525 L 3110 3904 C 3098 1984 2726 582 1997 -288 L 2349 -595 C 2944 115 3322 1139 3482 2477 C 3680 1843 3968 1267 4352 755 C 3994 378 3546 58 3008 -205 L 3264 -627 C 3814 -365 4282 -32 4666 371 C 4998 6 5389 -320 5843 -614 L 6138 -224 C 5690 58 5299 371 4960 723 C 5408 1325 5702 2067 5837 2944 L 5837 3200 L 5005 3200 C 5133 3610 5254 4102 5382 4672 L 5382 4966 L 2381 4966 L 2381 4525 L 3110 4525 z M 4634 1094 C 4070 1811 3712 2662 3558 3648 C 3558 3731 3565 3814 3565 3904 L 3565 4525 L 4896 4525 C 4730 3763 4582 3187 4454 2797 L 5376 2797 C 5248 2150 4998 1581 4634 1094 z" transform="scale(0.015625)"/><path id="PingFangSC-Regular-4e7" d="M 480 4896 L 480 4442 L 3322 4442 C 2758 3251 1747 2240 301 1408 L 602 1005 C 1574 1587 2362 2253 2963 3002 L 2963 -653 L 3437 -653 L 3437 3680 C 3584 3923 3718 4179 3834 4442 L 5920 4442 L 5920 4896 L 480 4896 z M 4243 3174 L 3910 2861 C 4685 2227 5293 1632 5741 1069 L 6093 1427 C 5594 2010 4979 2592 4243 3174 z" transform="scale(0.015625)"/><path id="PingFangSC-Regular-145e" d="M 454 4237 C 723 4275 992 4314 1254 4358 L 1254 3475 L 333 3475 L 333 3034 L 1216 3034 C 1024 2342 704 1722 250 1171 L 442 672 C 774 1146 1050 1670 1254 2246 L 1254 -640 L 1696 -640 L 1696 2285 C 1862 2054 2061 1747 2291 1363 L 2547 1754 C 2259 2106 1978 2419 1696 2701 L 1696 3034 L 2451 3034 L 2451 3475 L 1696 3475 L 1696 4454 C 1971 4518 2234 4595 2483 4678 L 2317 5107 C 1754 4896 1101 4755 365 4678 L 454 4237 z M 5638 1466 L 5638 3616 L 4749 3616 C 4941 3840 5133 4115 5325 4448 L 5325 4787 L 3878 4787 C 3949 4915 4013 5056 4064 5203 L 3610 5254 C 3392 4672 2976 4179 2362 3770 L 2630 3424 C 2694 3469 2765 3520 2829 3571 L 2829 3206 L 5197 3206 L 5197 2733 L 2880 2733 L 2880 2349 L 5197 2349 L 5197 1862 L 2790 1862 L 2790 1466 L 5638 1466 z M 3629 4384 L 4813 4384 C 4627 4090 4442 3834 4250 3616 L 2893 3616 C 3181 3846 3424 4102 3629 4384 z M 5568 1158 L 5171 1030 C 5395 653 5600 218 5792 -275 L 6170 -109 C 5997 339 5798 762 5568 1158 z M 2662 1050 C 2573 614 2426 218 2227 -141 L 2598 -378 C 2797 6 2950 454 3059 973 L 2662 1050 z M 4685 -582 C 4890 -582 5037 -544 5126 -467 C 5235 -378 5306 -122 5344 294 L 4947 416 C 4928 122 4890 -51 4832 -109 C 4787 -154 4710 -179 4608 -179 L 3994 -179 C 3814 -179 3731 -90 3731 83 L 3731 1152 L 3315 1152 L 3315 0 C 3315 -384 3494 -582 3853 -582 L 4685 -582 z M 4262 1261 L 3930 1050 C 4166 768 4352 506 4486 269 L 4819 499 C 4691 717 4506 973 4262 1261 z" transform="scale(0.015625)"/><path id="PingFangSC-Regular-a27" d="M 1325 3328 L 1325 2893 L 3002 2893 L 3002 102 C 2938 115 2874 134 2816 154 C 2355 301 1971 646 1664 1197 C 1779 1530 1882 1894 1958 2291 L 1510 2368 C 1293 1267 883 390 269 -262 L 563 -627 C 928 -256 1235 205 1485 755 C 1747 339 2093 32 2515 -166 C 3078 -403 4000 -525 5293 -525 L 6010 -525 L 6093 -64 C 5747 -90 5414 -102 5088 -102 C 4448 -96 3910 -58 3462 6 L 3462 1331 L 5370 1331 L 5370 1766 L 3462 1766 L 3462 2893 L 5088 2893 L 5088 3328 L 1325 3328 z M 5818 4576 L 3494 4576 C 3405 4838 3302 5075 3200 5286 L 2707 5210 C 2822 5018 2931 4806 3027 4576 L 582 4576 L 582 3181 L 1030 3181 L 1030 4154 L 5370 4154 L 5370 3213 L 5818 3213 L 5818 4576 z" transform="scale(0.015625)"/></defs><use xlink:href="#PingFangSC-Regular-e84"/><use transform="translate(100 0)" xlink:href="#PingFangSC-Regular-4e7"/><use transform="translate(200 0)" xlink:href="#PingFangSC-Regular-145e"/><use transform="translate(300 0)" xlink:href="#PingFangSC-Regular-a27"/></g></g><g id="line2d_22"><path d="M 67.2192 157.640995 L 74.095708 154.191602 L 80.972217 150.987082 L 87.848725 148.007706 L 95.707592 144.854879 L 103.566458 141.946721 L 111.425325 139.259717 L 120.26655 136.474151 L 129.107775 133.91238 L 138.931358 131.296481 L 149.7373 128.66107 L 161.5256 126.029466 L 174.296258 123.411653 L 189.031634 120.623093 L 207.696442 117.336979 L 237.167192 112.420532 L 277.443884 105.668451 L 307.896992 100.317908 L 362.909059 90.590127 L 381.573867 87.550915 L 398.273959 85.049857 L 413.991692 82.918662 L 429.709426 81.020421 L 445.427159 79.358636 L 459.180176 78.093026 L 459.180176 78.093026" clip-path="url(#p216faa16c7)" style="fill:none;stroke:#2952e3;stroke-width:2.2;stroke-linecap:square"/></g><g id="legend_1"><g id="line2d_23"><path d="M 274.74795 219.236962 L 283.74795 219.236962 L 292.74795 219.236962" style="fill:none;stroke:#2952e3;stroke-width:2.2;stroke-linecap:square"/></g><g id="text_21"><g transform="translate(299.94795 222.386962) scale(0.09 -0.09)"><defs><path id="PingFangSC-Regular-2f" d="M 461 4570 L 461 0 L 3622 0 L 3622 454 L 979 454 L 979 4570 L 461 4570 z" transform="scale(0.015625)"/><path id="PingFangSC-Regular-58" d="M 397 3309 L 397 1261 C 397 365 794 -90 1600 -90 C 2048 -90 2406 115 2675 512 L 2675 0 L 3187 0 L 3187 3309 L 2675 3309 L 2675 1293 C 2637 1011 2528 781 2349 602 C 2176 435 1978 346 1760 346 C 1459 346 1242 429 1107 582 C 973 736 909 973 909 1286 L 909 3309 L 397 3309 z" transform="scale(0.015625)"/><path id="PingFangSC-Regular-32" d="M 2458 4659 C 1766 4659 1229 4429 832 3968 C 454 3533 269 2970 269 2278 C 269 1594 454 1030 832 595 C 1229 141 1766 -90 2451 -90 C 3136 -90 3680 141 4077 595 C 4448 1030 4640 1587 4640 2278 C 4640 2976 4448 3539 4077 3974 C 3680 4435 3136 4659 2458 4659 z M 2458 4192 C 2982 4192 3392 4019 3686 3667 C 3968 3322 4115 2861 4115 2278 C 4115 1702 3968 1248 3686 902 C 3392 557 2976 378 2451 378 C 1926 378 1510 557 1216 915 C 934 1261 794 1715 794 2278 C 794 2848 934 3302 1216 3648 C 1517 4013 1933 4192 2458 4192 z" transform="scale(0.015625)"/><path id="PingFangSC-Regular-53" d="M 1978 3398 C 1478 3398 1114 3187 877 2765 L 877 3309 L 397 3309 L 397 -1267 L 909 -1267 L 909 602 C 1165 141 1530 -90 2003 -90 C 2477 -90 2842 90 3110 435 C 3354 755 3482 1158 3482 1645 C 3482 2144 3354 2547 3104 2867 C 2829 3226 2451 3398 1978 3398 z M 1914 2976 C 2266 2976 2534 2848 2720 2579 C 2874 2349 2957 2035 2957 1645 C 2957 1248 2874 934 2707 704 C 2522 461 2253 333 1894 333 C 1587 333 1350 454 1171 685 C 979 922 890 1229 890 1613 L 890 1677 C 890 2048 973 2355 1139 2586 C 1318 2848 1581 2976 1914 2976 z" transform="scale(0.015625)"/><path id="PingFangSC-Regular-11" d="M 845 762 C 730 762 640 723 570 646 C 493 570 454 480 454 365 C 454 256 493 166 570 90 C 640 13 730 -26 845 -26 C 947 -26 1043 13 1120 90 C 1197 166 1235 256 1235 365 C 1235 480 1197 570 1120 646 C 1043 723 947 762 845 762 z" transform="scale(0.015625)"/><path id="PingFangSC-Regular-1b" d="M 1920 4659 C 1440 4659 1069 4538 800 4288 C 550 4064 429 3782 429 3450 C 429 3206 486 3002 602 2835 C 723 2656 902 2522 1146 2438 L 1146 2426 C 902 2368 704 2234 538 2029 C 358 1811 269 1555 269 1261 C 269 858 410 531 691 288 C 979 38 1389 -90 1920 -90 C 2445 -90 2854 38 3149 288 C 3430 531 3571 858 3571 1261 C 3571 1555 3482 1811 3302 2029 C 3136 2234 2931 2368 2694 2426 L 2694 2438 C 2931 2522 3110 2656 3238 2835 C 3354 3002 3411 3206 3411 3450 C 3411 3782 3283 4064 3040 4288 C 2771 4538 2394 4659 1920 4659 z M 1920 4230 C 2240 4230 2496 4147 2682 3981 C 2835 3840 2918 3654 2918 3430 C 2918 3200 2848 3008 2707 2867 C 2534 2701 2272 2611 1920 2611 C 1562 2611 1299 2701 1133 2867 C 992 3008 922 3200 922 3430 C 922 3654 998 3840 1158 3981 C 1338 4147 1594 4230 1920 4230 z M 1920 2202 C 2285 2202 2573 2112 2778 1926 C 2957 1760 3053 1536 3053 1261 C 3053 992 2957 774 2778 608 C 2573 429 2291 339 1920 339 C 1549 339 1261 429 1069 602 C 877 768 787 992 787 1261 C 787 1536 877 1760 1069 1926 C 1267 2112 1549 2202 1920 2202 z" transform="scale(0.015625)"/><path id="PingFangSC-Regular-144" d="M 0 2522 L 0 2086 L 6400 2086 L 6400 2522 L 0 2522 z" transform="scale(0.015625)"/><path id="PingFangSC-Regular-19" d="M 1984 4659 C 1466 4659 1056 4422 755 3942 C 467 3488 326 2893 326 2163 C 326 1466 454 922 723 531 C 1005 122 1421 -90 1978 -90 C 2426 -90 2790 64 3085 358 C 3373 653 3520 1030 3520 1478 C 3520 1926 3386 2285 3123 2566 C 2854 2848 2502 2989 2067 2989 C 1798 2989 1562 2925 1357 2790 C 1139 2662 979 2477 864 2240 L 838 2240 C 832 2323 832 2381 832 2406 C 832 2925 928 3354 1133 3686 C 1338 4045 1619 4218 1978 4218 C 2509 4218 2822 3962 2925 3437 L 3443 3437 C 3315 4256 2829 4659 1984 4659 z M 1965 2554 C 2278 2554 2528 2458 2720 2253 C 2906 2061 3002 1805 3002 1478 C 3002 1152 2906 883 2714 666 C 2522 461 2272 352 1965 352 C 1645 352 1395 461 1203 678 C 1011 883 922 1146 922 1466 C 922 1786 1018 2042 1216 2246 C 1414 2451 1664 2554 1965 2554 z" transform="scale(0.015625)"/></defs><use xlink:href="#PingFangSC-Regular-2f"/><use transform="translate(58.796875 0)" xlink:href="#PingFangSC-Regular-52"/><use transform="translate(117.390625 0)" xlink:href="#PingFangSC-Regular-46"/><use transform="translate(172.09375 0)" xlink:href="#PingFangSC-Regular-58"/><use transform="translate(228.09375 0)" xlink:href="#PingFangSC-Regular-56"/><use transform="translate(278.59375 0)" xlink:href="#PingFangSC-Regular-3"/><use transform="translate(311.890625 0)" xlink:href="#PingFangSC-Regular-b"/><use transform="translate(345.1875 0)" xlink:href="#PingFangSC-Regular-32"/><use transform="translate(421.890625 0)" xlink:href="#PingFangSC-Regular-53"/><use transform="translate(480.484375 0)" xlink:href="#PingFangSC-Regular-58"/><use transform="translate(536.484375 0)" xlink:href="#PingFangSC-Regular-56"/><use transform="translate(586.984375 0)" xlink:href="#PingFangSC-Regular-3"/><use transform="translate(620.28125 0)" xlink:href="#PingFangSC-Regular-17"/><use transform="translate(680.28125 0)" xlink:href="#PingFangSC-Regular-11"/><use transform="translate(706.6875 0)" xlink:href="#PingFangSC-Regular-1b"/><use transform="translate(766.6875 0)" xlink:href="#PingFangSC-Regular-c"/><use transform="translate(799.984375 0)" xlink:href="#PingFangSC-Regular-3"/><use transform="translate(833.28125 0)" xlink:href="#PingFangSC-Regular-144"/><use transform="translate(933.28125 0)" xlink:href="#PingFangSC-Regular-3"/><use transform="translate(966.578125 0)" xlink:href="#PingFangSC-Regular-18"/><use transform="translate(1026.578125 0)" xlink:href="#PingFangSC-Regular-14"/><use transform="translate(1066.671875 0)" xlink:href="#PingFangSC-Regular-11"/><use transform="translate(1093.078125 0)" xlink:href="#PingFangSC-Regular-19"/></g></g><g id="line2d_24"><path d="M 274.74795 233.258681 L 283.74795 233.258681 L 292.74795 233.258681" style="fill:none;stroke-dasharray:5.18,2.24;stroke-dashoffset:0;stroke:#27272a;stroke-width:1.4"/></g><g id="text_22"><g transform="translate(299.94795 236.408681) scale(0.09 -0.09)"><defs><path id="PingFangSC-Regular-34" d="M 2458 4659 C 1766 4659 1229 4429 832 3968 C 454 3533 269 2970 269 2278 C 269 1594 454 1030 832 595 C 1229 141 1766 -90 2451 -90 C 2938 -90 3354 32 3699 262 C 3872 32 4045 -211 4224 -467 L 4570 -166 C 4397 83 4224 326 4045 557 C 4051 570 4064 582 4077 595 C 4448 1030 4640 1587 4640 2278 C 4640 2976 4448 3539 4077 3974 C 3680 4435 3136 4659 2458 4659 z M 2458 4192 C 2982 4192 3392 4019 3686 3667 C 3968 3322 4115 2861 4115 2278 C 4115 1734 3987 1293 3731 954 C 3475 1267 3213 1562 2950 1843 L 2637 1542 C 2893 1274 3149 973 3405 646 C 3149 467 2829 378 2451 378 C 1926 378 1510 557 1216 915 C 934 1261 794 1715 794 2278 C 794 2848 934 3302 1216 3648 C 1517 4013 1933 4192 2458 4192 z" transform="scale(0.015625)"/><path id="PingFangSC-Regular-5a" d="M 32 3309 L 1158 0 L 1638 0 L 2419 2662 L 3187 0 L 3674 0 L 4800 3309 L 4237 3309 L 3424 627 L 2656 3309 L 2176 3309 L 1408 627 L 595 3309 L 32 3309 z" transform="scale(0.015625)"/><path id="PingFangSC-Regular-10" d="M 320 1875 L 320 1440 L 3552 1440 L 3552 1875 L 320 1875 z" transform="scale(0.015625)"/><path id="PingFangSC-Regular-1a" d="M 218 4570 L 218 4090 L 2682 4090 L 979 0 L 1536 0 L 3219 4141 L 3219 4570 L 218 4570 z" transform="scale(0.015625)"/><path id="PingFangSC-Regular-548" d="M 3430 5216 L 2963 5216 C 2963 4973 2957 4634 2950 4198 C 2893 2355 1984 890 224 -192 L 506 -602 C 1926 314 2835 1466 3219 2861 C 3674 1414 4557 262 5862 -595 L 6163 -192 C 4672 723 3744 2054 3386 3795 C 3411 4192 3430 4666 3430 5216 z" transform="scale(0.015625)"/><path id="PingFangSC-Regular-ae1" d="M 2970 4294 L 2970 243 L 346 243 L 346 -198 L 6061 -198 L 6061 243 L 3443 243 L 3443 4294 L 5645 4294 L 5645 4736 L 774 4736 L 774 4294 L 2970 4294 z" transform="scale(0.015625)"/><path id="PingFangSC-Regular-19e3" d="M 3200 3802 L 3200 3424 L 3936 3424 L 3936 2822 L 3098 2822 L 3098 2438 L 5222 2438 L 5222 2822 L 4371 2822 L 4371 3424 L 5114 3424 L 5114 3802 L 4371 3802 L 4371 4307 L 3936 4307 L 3936 3802 L 3200 3802 z M 3302 1984 L 3302 352 L 5005 352 L 5005 1984 L 3302 1984 z M 4608 730 L 3699 730 L 3699 1600 L 4608 1600 L 4608 730 z M 5894 4973 L 2432 4973 L 2432 1440 C 2419 730 2266 141 1958 -326 L 2298 -640 C 2669 -102 2854 602 2867 1466 L 2867 4557 L 5459 4557 L 5459 115 C 5459 -96 5363 -205 5184 -205 C 5005 -205 4806 -198 4595 -186 L 4704 -608 L 5318 -608 C 5702 -608 5894 -416 5894 -38 L 5894 4973 z M 1050 5152 L 730 4838 C 1158 4499 1498 4179 1754 3872 L 2067 4192 C 1792 4512 1453 4832 1050 5152 z M 269 3270 L 269 2829 L 1158 2829 L 1158 410 C 1158 307 1107 224 1018 147 L 1197 -262 C 1555 -6 1888 282 2202 602 L 2086 1056 C 1920 890 1760 742 1606 602 L 1606 3270 L 269 3270 z" transform="scale(0.015625)"/><path id="PingFangSC-Regular-57d" d="M 1107 2995 L 1107 -640 L 1568 -640 L 1568 3699 C 1798 4115 1997 4557 2150 5018 L 1734 5210 C 1421 4224 922 3347 230 2579 L 365 2118 C 634 2394 883 2688 1107 2995 z M 2029 3667 L 2029 3219 L 3322 3219 C 3181 1632 2682 454 1824 -326 L 2163 -621 C 3085 230 3622 1510 3763 3219 L 4166 3219 L 4166 -6 C 4166 -358 4333 -538 4672 -538 L 5466 -538 C 5632 -531 5766 -467 5856 -352 C 5946 -211 6016 205 6061 883 L 5645 1018 C 5626 429 5587 90 5530 -6 C 5478 -77 5421 -115 5350 -115 L 4794 -115 C 4666 -115 4608 -51 4608 77 L 4608 3219 L 5939 3219 L 5939 3667 L 3789 3667 C 3795 3795 3802 3923 3802 4051 L 3802 5210 L 3360 5210 L 3360 4051 C 3360 3923 3354 3795 3347 3667 L 2029 3667 z M 4640 5094 L 4339 4806 C 4762 4506 5088 4218 5331 3942 L 5645 4256 C 5376 4538 5037 4819 4640 5094 z" transform="scale(0.015625)"/><path id="PingFangSC-Regular-1c" d="M 1869 4659 C 1421 4659 1050 4512 762 4211 C 467 3917 326 3546 326 3091 C 326 2650 454 2291 717 2016 C 986 1728 1338 1581 1779 1581 C 2048 1581 2285 1651 2490 1779 C 2701 1914 2867 2099 2982 2330 L 3008 2330 C 3008 2253 3014 2195 3014 2163 C 3014 1651 2912 1222 2714 883 C 2502 531 2221 352 1869 352 C 1331 352 1018 614 922 1133 L 403 1133 C 525 320 1011 -90 1862 -90 C 2374 -90 2784 154 3091 627 C 3373 1088 3520 1677 3520 2406 C 3520 3110 3386 3661 3117 4045 C 2835 4454 2419 4659 1869 4659 z M 1882 4218 C 2195 4218 2451 4109 2643 3891 C 2829 3686 2925 3424 2925 3104 C 2925 2790 2822 2528 2630 2323 C 2426 2118 2176 2016 1882 2016 C 1562 2016 1312 2118 1126 2317 C 934 2509 845 2771 845 3091 C 845 3424 934 3693 1126 3904 C 1318 4115 1568 4218 1882 4218 z" transform="scale(0.015625)"/></defs><use xlink:href="#PingFangSC-Regular-34"/><use transform="translate(76.703125 0)" xlink:href="#PingFangSC-Regular-5a"/><use transform="translate(152.203125 0)" xlink:href="#PingFangSC-Regular-48"/><use transform="translate(207.703125 0)" xlink:href="#PingFangSC-Regular-51"/><use transform="translate(263.609375 0)" xlink:href="#PingFangSC-Regular-16"/><use transform="translate(323.609375 0)" xlink:href="#PingFangSC-Regular-10"/><use transform="translate(384.109375 0)" xlink:href="#PingFangSC-Regular-14"/><use transform="translate(424.203125 0)" xlink:href="#PingFangSC-Regular-11"/><use transform="translate(450.609375 0)" xlink:href="#PingFangSC-Regular-1a"/><use transform="translate(505.3125 0)" xlink:href="#PingFangSC-Regular-25"/><use transform="translate(573.015625 0)" xlink:href="#PingFangSC-Regular-10"/><use transform="translate(633.515625 0)" xlink:href="#PingFangSC-Regular-2c"/><use transform="translate(657.21875 0)" xlink:href="#PingFangSC-Regular-51"/><use transform="translate(713.125 0)" xlink:href="#PingFangSC-Regular-56"/><use transform="translate(763.625 0)" xlink:href="#PingFangSC-Regular-57"/><use transform="translate(799.125 0)" xlink:href="#PingFangSC-Regular-55"/><use transform="translate(835.625 0)" xlink:href="#PingFangSC-Regular-58"/><use transform="translate(891.625 0)" xlink:href="#PingFangSC-Regular-46"/><use transform="translate(946.328125 0)" xlink:href="#PingFangSC-Regular-57"/><use transform="translate(981.828125 0)" xlink:href="#PingFangSC-Regular-b"/><use transform="translate(1015.125 0)" xlink:href="#PingFangSC-Regular-548"/><use transform="translate(1115.125 0)" xlink:href="#PingFangSC-Regular-ae1"/><use transform="translate(1215.125 0)" xlink:href="#PingFangSC-Regular-19e3"/><use transform="translate(1315.125 0)" xlink:href="#PingFangSC-Regular-57d"/><use transform="translate(1415.125 0)" xlink:href="#PingFangSC-Regular-c"/><use transform="translate(1448.421875 0)" xlink:href="#PingFangSC-Regular-144"/><use transform="translate(1548.421875 0)" xlink:href="#PingFangSC-Regular-3"/><use transform="translate(1581.71875 0)" xlink:href="#PingFangSC-Regular-17"/><use transform="translate(1641.71875 0)" xlink:href="#PingFangSC-Regular-1c"/><use transform="translate(1701.71875 0)" xlink:href="#PingFangSC-Regular-11"/><use transform="translate(1728.125 0)" xlink:href="#PingFangSC-Regular-17"/></g></g><g id="line2d_25"><path d="M 274.74795 246.758681 L 283.74795 246.758681 L 292.74795 246.758681" style="fill:none;stroke:#a1a1aa;stroke-width:1.6;stroke-linecap:square"/></g><g id="text_23"><g transform="translate(299.94795 249.908681) scale(0.09 -0.09)"><defs><path id="PingFangSC-Regular-26" d="M 2432 4659 C 1728 4659 1178 4422 794 3936 C 442 3501 269 2944 269 2266 C 269 1587 435 1037 781 614 C 1158 147 1702 -90 2413 -90 C 2899 -90 3322 51 3674 326 C 4051 621 4288 1037 4390 1568 L 3885 1568 C 3795 1171 3610 870 3341 666 C 3085 474 2778 378 2413 378 C 1875 378 1472 557 1190 909 C 922 1242 794 1696 794 2266 C 794 2835 928 3290 1197 3635 C 1485 4006 1894 4192 2426 4192 C 2784 4192 3085 4109 3334 3936 C 3590 3757 3757 3501 3821 3168 L 4326 3168 C 4262 3622 4058 3987 3712 4256 C 3366 4525 2938 4659 2432 4659 z" transform="scale(0.015625)"/><path id="PingFangSC-Regular-4f" d="M 499 4659 L 499 0 L 1005 0 L 1005 4659 L 499 4659 z" transform="scale(0.015625)"/><path id="PingFangSC-Regular-47" d="M 2842 4659 L 2842 2701 C 2586 3168 2221 3398 1747 3398 C 1274 3398 909 3226 640 2867 C 390 2547 269 2150 269 1664 C 269 1165 390 755 640 435 C 909 90 1286 -90 1773 -90 C 2272 -90 2643 122 2874 544 L 2874 0 L 3354 0 L 3354 4659 L 2842 4659 z M 1856 2976 C 2150 2976 2394 2861 2579 2618 C 2758 2381 2854 2067 2854 1683 L 2854 1619 C 2854 1248 2771 947 2611 717 C 2426 461 2170 333 1837 333 C 1478 333 1210 467 1030 723 C 870 954 794 1267 794 1664 C 794 2061 870 2368 1037 2592 C 1216 2848 1491 2976 1856 2976 z" transform="scale(0.015625)"/></defs><use xlink:href="#PingFangSC-Regular-26"/><use transform="translate(72.796875 0)" xlink:href="#PingFangSC-Regular-4f"/><use transform="translate(96.296875 0)" xlink:href="#PingFangSC-Regular-44"/><use transform="translate(152.203125 0)" xlink:href="#PingFangSC-Regular-58"/><use transform="translate(208.203125 0)" xlink:href="#PingFangSC-Regular-47"/><use transform="translate(266.796875 0)" xlink:href="#PingFangSC-Regular-48"/><use transform="translate(322.296875 0)" xlink:href="#PingFangSC-Regular-3"/><use transform="translate(355.59375 0)" xlink:href="#PingFangSC-Regular-26"/><use transform="translate(428.390625 0)" xlink:href="#PingFangSC-Regular-52"/><use transform="translate(486.984375 0)" xlink:href="#PingFangSC-Regular-47"/><use transform="translate(545.578125 0)" xlink:href="#PingFangSC-Regular-48"/><use transform="translate(601.078125 0)" xlink:href="#PingFangSC-Regular-3"/><use transform="translate(634.375 0)" xlink:href="#PingFangSC-Regular-b"/><use transform="translate(667.671875 0)" xlink:href="#PingFangSC-Regular-32"/><use transform="translate(744.375 0)" xlink:href="#PingFangSC-Regular-53"/><use transform="translate(802.96875 0)" xlink:href="#PingFangSC-Regular-58"/><use transform="translate(858.96875 0)" xlink:href="#PingFangSC-Regular-56"/><use transform="translate(909.46875 0)" xlink:href="#PingFangSC-Regular-3"/><use transform="translate(942.765625 0)" xlink:href="#PingFangSC-Regular-17"/><use transform="translate(1002.765625 0)" xlink:href="#PingFangSC-Regular-11"/><use transform="translate(1029.171875 0)" xlink:href="#PingFangSC-Regular-1b"/><use transform="translate(1089.171875 0)" xlink:href="#PingFangSC-Regular-c"/><use transform="translate(1122.46875 0)" xlink:href="#PingFangSC-Regular-3"/><use transform="translate(1155.765625 0)" xlink:href="#PingFangSC-Regular-144"/><use transform="translate(1255.765625 0)" xlink:href="#PingFangSC-Regular-3"/><use transform="translate(1289.0625 0)" xlink:href="#PingFangSC-Regular-17"/><use transform="translate(1349.0625 0)" xlink:href="#PingFangSC-Regular-17"/><use transform="translate(1409.0625 0)" xlink:href="#PingFangSC-Regular-11"/><use transform="translate(1435.46875 0)" xlink:href="#PingFangSC-Regular-16"/></g></g><g id="line2d_26"><path d="M 274.74795 260.7804 L 283.74795 260.7804 L 292.74795 260.7804" style="fill:none;stroke-dasharray:10.24,2.56,1.6,2.56;stroke-dashoffset:0;stroke:#a1a1aa;stroke-width:1.6"/></g><g id="text_24"><g transform="translate(299.94795 263.9304) scale(0.09 -0.09)"><defs><path id="PingFangSC-Regular-30" d="M 461 4570 L 461 0 L 986 0 L 986 3635 L 1005 3635 L 2586 0 L 3059 0 L 4640 3635 L 4659 3635 L 4659 0 L 5184 0 L 5184 4570 L 4531 4570 L 2835 672 L 2816 672 L 1114 4570 L 461 4570 z" transform="scale(0.015625)"/></defs><use xlink:href="#PingFangSC-Regular-26"/><use transform="translate(72.796875 0)" xlink:href="#PingFangSC-Regular-4f"/><use transform="translate(96.296875 0)" xlink:href="#PingFangSC-Regular-44"/><use transform="translate(152.203125 0)" xlink:href="#PingFangSC-Regular-58"/><use transform="translate(208.203125 0)" xlink:href="#PingFangSC-Regular-47"/><use transform="translate(266.796875 0)" xlink:href="#PingFangSC-Regular-48"/><use transform="translate(322.296875 0)" xlink:href="#PingFangSC-Regular-3"/><use transform="translate(355.59375 0)" xlink:href="#PingFangSC-Regular-26"/><use transform="translate(428.390625 0)" xlink:href="#PingFangSC-Regular-52"/><use transform="translate(486.984375 0)" xlink:href="#PingFangSC-Regular-47"/><use transform="translate(545.578125 0)" xlink:href="#PingFangSC-Regular-48"/><use transform="translate(601.078125 0)" xlink:href="#PingFangSC-Regular-3"/><use transform="translate(634.375 0)" xlink:href="#PingFangSC-Regular-b"/><use transform="translate(667.671875 0)" xlink:href="#PingFangSC-Regular-2a"/><use transform="translate(742.46875 0)" xlink:href="#PingFangSC-Regular-2f"/><use transform="translate(801.265625 0)" xlink:href="#PingFangSC-Regular-30"/><use transform="translate(889.46875 0)" xlink:href="#PingFangSC-Regular-3"/><use transform="translate(922.765625 0)" xlink:href="#PingFangSC-Regular-18"/><use transform="translate(982.765625 0)" xlink:href="#PingFangSC-Regular-11"/><use transform="translate(1009.171875 0)" xlink:href="#PingFangSC-Regular-15"/><use transform="translate(1069.171875 0)" xlink:href="#PingFangSC-Regular-c"/><use transform="translate(1102.46875 0)" xlink:href="#PingFangSC-Regular-3"/><use transform="translate(1135.765625 0)" xlink:href="#PingFangSC-Regular-144"/><use transform="translate(1235.765625 0)" xlink:href="#PingFangSC-Regular-3"/><use transform="translate(1269.0625 0)" xlink:href="#PingFangSC-Regular-17"/><use transform="translate(1329.0625 0)" xlink:href="#PingFangSC-Regular-15"/><use transform="translate(1389.0625 0)" xlink:href="#PingFangSC-Regular-11"/><use transform="translate(1415.46875 0)" xlink:href="#PingFangSC-Regular-1a"/></g></g><g id="line2d_27"><path d="M 274.74795 274.2804 L 283.74795 274.2804 L 292.74795 274.2804" style="fill:none;stroke-dasharray:1.6,2.64;stroke-dashoffset:0;stroke:#a1a1aa;stroke-width:1.6"/></g><g id="text_25"><g transform="translate(299.94795 277.4304) scale(0.09 -0.09)"><defs><path id="PingFangSC-Regular-5b" d="M 173 3309 L 1344 1754 L 32 0 L 640 0 L 1632 1376 L 2618 0 L 3226 0 L 1914 1754 L 3085 3309 L 2483 3309 L 1632 2131 L 774 3309 L 173 3309 z" transform="scale(0.015625)"/></defs><use xlink:href="#PingFangSC-Regular-26"/><use transform="translate(72.796875 0)" xlink:href="#PingFangSC-Regular-52"/><use transform="translate(131.390625 0)" xlink:href="#PingFangSC-Regular-47"/><use transform="translate(189.984375 0)" xlink:href="#PingFangSC-Regular-48"/><use transform="translate(245.484375 0)" xlink:href="#PingFangSC-Regular-5b"/><use transform="translate(296.390625 0)" xlink:href="#PingFangSC-Regular-3"/><use transform="translate(329.6875 0)" xlink:href="#PingFangSC-Regular-b"/><use transform="translate(362.984375 0)" xlink:href="#PingFangSC-Regular-2a"/><use transform="translate(437.78125 0)" xlink:href="#PingFangSC-Regular-33"/><use transform="translate(501.984375 0)" xlink:href="#PingFangSC-Regular-37"/><use transform="translate(563.890625 0)" xlink:href="#PingFangSC-Regular-10"/><use transform="translate(624.390625 0)" xlink:href="#PingFangSC-Regular-18"/><use transform="translate(684.390625 0)" xlink:href="#PingFangSC-Regular-11"/><use transform="translate(710.796875 0)" xlink:href="#PingFangSC-Regular-18"/><use transform="translate(770.796875 0)" xlink:href="#PingFangSC-Regular-c"/><use transform="translate(804.09375 0)" xlink:href="#PingFangSC-Regular-3"/><use transform="translate(837.390625 0)" xlink:href="#PingFangSC-Regular-144"/><use transform="translate(937.390625 0)" xlink:href="#PingFangSC-Regular-3"/><use transform="translate(970.6875 0)" xlink:href="#PingFangSC-Regular-16"/><use transform="translate(1030.6875 0)" xlink:href="#PingFangSC-Regular-17"/><use transform="translate(1090.6875 0)" xlink:href="#PingFangSC-Regular-11"/><use transform="translate(1117.09375 0)" xlink:href="#PingFangSC-Regular-19"/></g></g></g></g></g><defs><clipPath id="p216faa16c7"><rect width="401.76" height="243.936" x="67.219" y="42.854"/></clipPath></defs></svg>